<svg viewBox="0 0 70 29" xmlns="http://www.w3.org/2000/svg" xmlns:xlink="http://www.w3.org/1999/xlink" width="70.000000" height="29.000000" fill="none" customFrame="#000000">
	<path id="SQ R3" d="M10.8032 18.3818C10.8032 17.6901 10.5591 17.1611 10.0708 16.7949C9.58252 16.4206 8.70361 16.0299 7.43408 15.623C6.16455 15.208 5.1595 14.8011 4.41895 14.4023C2.40072 13.3118 1.3916 11.8429 1.3916 9.99561C1.3916 9.03532 1.66016 8.18083 2.19727 7.43213C2.74251 6.67529 3.51969 6.08529 4.52881 5.66211C5.54606 5.23893 6.68538 5.02734 7.94678 5.02734C9.21631 5.02734 10.3475 5.25928 11.3403 5.72314C12.3332 6.17887 13.1022 6.82585 13.6475 7.66406C14.2008 8.50228 14.4775 9.45443 14.4775 10.5205L10.8154 10.5205C10.8154 9.70671 10.5591 9.07601 10.0464 8.62842C9.53369 8.17269 8.81348 7.94482 7.88574 7.94482C6.99056 7.94482 6.29476 8.13607 5.79834 8.51855C5.30192 8.8929 5.05371 9.38932 5.05371 10.0078C5.05371 10.5856 5.34261 11.0698 5.92041 11.4604C6.50635 11.8511 7.36491 12.2173 8.49609 12.5591C10.5794 13.1857 12.0972 13.9629 13.0493 14.8906C14.0015 15.8184 14.4775 16.974 14.4775 18.3574C14.4775 19.8955 13.8957 21.104 12.7319 21.9829C11.5682 22.8537 10.0016 23.2891 8.03223 23.2891C6.66504 23.2891 5.41992 23.0409 4.29688 22.5444C3.17383 22.0399 2.31527 21.3522 1.72119 20.4814C1.13525 19.6107 0.842285 18.6016 0.842285 17.4541L4.5166 17.4541C4.5166 19.4154 5.68848 20.396 8.03223 20.396C8.90299 20.396 9.58252 20.221 10.0708 19.8711C10.5591 19.513 10.8032 19.0166 10.8032 18.3818ZM31.543 14.561C31.543 16.2212 31.2744 17.6657 30.7373 18.8945C30.2002 20.1152 29.4556 21.0959 28.5034 21.8364L31.4575 24.1558L29.126 26.2188L25.3418 23.1792C24.9105 23.2524 24.4629 23.2891 23.999 23.2891C22.526 23.2891 21.2118 22.9351 20.0562 22.2271C18.9006 21.519 18.0054 20.5099 17.3706 19.1997C16.7358 17.8813 16.4144 16.3677 16.4062 14.6587L16.4062 13.7798C16.4062 12.0301 16.7196 10.492 17.3462 9.16553C17.981 7.83089 18.8721 6.80957 20.0195 6.10156C21.1751 5.38542 22.4935 5.02734 23.9746 5.02734C25.4557 5.02734 26.77 5.38542 27.9175 6.10156C29.0731 6.80957 29.9642 7.83089 30.5908 9.16553C31.2256 10.492 31.543 12.026 31.543 13.7676L31.543 14.561ZM27.832 13.7554C27.832 11.8918 27.4984 10.4757 26.8311 9.50732C26.1637 8.5389 25.2116 8.05469 23.9746 8.05469C22.7458 8.05469 21.7977 8.53483 21.1304 9.49512C20.4631 10.4473 20.1253 11.847 20.1172 13.6943L20.1172 14.561C20.1172 16.3758 20.4508 17.7837 21.1182 18.7847C21.7855 19.7856 22.7458 20.2861 23.999 20.2861C25.2279 20.2861 26.1719 19.806 26.8311 18.8457C27.4902 17.8773 27.8239 16.4694 27.832 14.6221L27.832 13.7554ZM47.0337 16.5386L44.1162 16.5386L44.1162 23.0449L40.4541 23.0449L40.4541 5.27148L47.0581 5.27148C49.1577 5.27148 50.7772 5.73942 51.9165 6.67529C53.0558 7.61117 53.6255 8.93359 53.6255 10.6426C53.6255 11.8551 53.361 12.8683 52.832 13.6821C52.3112 14.4878 51.5177 15.1307 50.4517 15.6108L54.2969 22.874L54.2969 23.0449L50.3662 23.0449L47.0337 16.5386ZM44.1162 13.5723L47.0703 13.5723C47.9899 13.5723 48.702 13.3403 49.2065 12.8765C49.7111 12.4045 49.9634 11.7575 49.9634 10.9355C49.9634 10.0973 49.7233 9.43815 49.2432 8.95801C48.7712 8.47786 48.0428 8.23779 47.0581 8.23779L44.1162 8.23779L44.1162 13.5723ZM59.6313 12.5957L61.5112 12.5957C62.4064 12.5957 63.0697 12.3719 63.501 11.9243C63.9323 11.4767 64.1479 10.8827 64.1479 10.1421C64.1479 9.42594 63.9323 8.86849 63.501 8.46973C63.0778 8.07096 62.4919 7.87158 61.7432 7.87158C61.0677 7.87158 60.5021 8.05876 60.0464 8.43311C59.5907 8.79932 59.3628 9.27946 59.3628 9.87354L55.835 9.87354C55.835 8.9458 56.0832 8.11572 56.5796 7.3833C57.0841 6.64274 57.784 6.06494 58.6792 5.6499C59.5825 5.23486 60.5754 5.02734 61.6577 5.02734C63.5376 5.02734 65.0106 5.479 66.0767 6.38232C67.1427 7.27751 67.6758 8.51449 67.6758 10.0933C67.6758 10.9071 67.4276 11.6558 66.9312 12.3394C66.4347 13.0229 65.7837 13.5479 64.978 13.9141C65.979 14.2721 66.7236 14.8092 67.2119 15.5254C67.7083 16.2415 67.9565 17.0879 67.9565 18.0645C67.9565 19.6432 67.3787 20.9087 66.2231 21.8608C65.0757 22.813 63.5539 23.2891 61.6577 23.2891C59.8836 23.2891 58.431 22.8211 57.2998 21.8853C56.1768 20.9494 55.6152 19.7124 55.6152 18.1743L59.1431 18.1743C59.1431 18.8416 59.3913 19.3869 59.8877 19.8101C60.3923 20.2332 61.0107 20.4448 61.7432 20.4448C62.5814 20.4448 63.2365 20.2251 63.7085 19.7856C64.1886 19.3381 64.4287 18.748 64.4287 18.0156C64.4287 16.2415 63.4521 15.3545 61.499 15.3545L59.6313 15.3545L59.6313 12.5957Z" fill="rgb(0,0,0)" fill-rule="nonzero" />
</svg>
